<?xml version="1.0" encoding="utf-8"?>
<!-- Generator: Adobe Illustrator 21.1.0, SVG Export Plug-In . SVG Version: 6.00 Build 0)  -->
<svg version="1.1" id="Layer_1" xmlns="http://www.w3.org/2000/svg" xmlns:xlink="http://www.w3.org/1999/xlink" x="0px" y="0px"
	 viewBox="0 0 180 180" style="enable-background:new 0 0 180 180;" xml:space="preserve">
<style type="text/css">
	.st0{fill:#D4FB78;}
	.st1{fill:#011892;}
</style>
<path class="st0" d="M168,180H12c-6.6,0-12-5.4-12-12V12C0,5.4,5.4,0,12,0h156c6.6,0,12,5.4,12,12v156C180,174.6,174.6,180,168,180z
	"/>
<g transform="translate(0.000000,180.000000) scale(0.100000,-0.100000)">
	<path class="st1" d="M241,1474.2c-8-9-11-82-9-242c3-228,3-228,26-240c13-6,29-17,35-23c35-35,109,4,221,114l66,64v88
		c0,95-24,168-68,207S267,1505.2,241,1474.2z M390,1386.2c47-11,54-16,76-60c27-53,31-103,10-142c-18-36-126-126-151-126
		c-3,0-5,77-5,170c0,97,4,170,9,170S362,1393.2,390,1386.2z"/>
	<path class="st1" d="M935,1464.2c-33-15-71-61-97-120c-13-27-18-64-18-124c0-76,3-89,26-119c25-32,26-33,103-33c81,0,101,9,101,45
		c0,32-20,45-70,45c-58,0-70,12-70,71c0,88,45,155,102,151c17-1,37,3,44,9c17,14,18,61,2,77S973,1481.2,935,1464.2z"/>
	<path class="st1" d="M1372,1446.2c-5-7-13-53-18-103c-4-49-9-81-11-70c-8,42-28,82-60,123c-31,38-38,42-80,42c-39,0-55-7-100-41
		l-53-41v-88c0-80,2-90,28-126c44-60,94-94,139-94c31,0,45,8,78,41l40,41l3-39c4-45,17-63,46-63c38,0,46,19,46,109v84l21-19
		c12-10,46-56,76-101c56-84,81-101,111-71c30,30,4,96-75,191l-23,28l30,26c27,22,30,31,30,82c0,47-4,61-23,79c-20,19-35,22-109,22
		C1412,1458.2,1379,1454.2,1372,1446.2z M1230,1296.2c27-60,26-109-4-130c-24-17-25-17-55,18c-40,45-44,112-8,137
		C1198,1346.2,1210,1341.2,1230,1296.2z"/>
	<path class="st1" d="M683,1409.2c-81-32-83-37-83-191c0-90,4-140,12-148c13-13,166-5,186,11c15,12,16,49,0,65c-7,7-34,12-60,12
		c-47,0-48,1-48,30c0,28,2,30,38,30c43,0,62,14,62,45c0,29-19,45-54,46l-31,1l29,8c38,12,66,39,66,65
		C800,1429.2,758,1439.2,683,1409.2z"/>
	<path class="st1" d="M387,951.2c-8-10-30-45-47-78c-18-33-50-94-72-135c-49-91-79-169-113-289c-38-135-32-181,21-181
		c30,0,36,11,54,100l15,75l83,3l82,3v-54c0-59,12-77,51-77c45,0,49,15,39,145c-5,66-10,163-10,215c0,107-18,259-33,278
		C443,974.2,406,971.2,387,951.2z M395,550.2c-9-9-115-15-115-6c0,5,26,61,58,124l57,114l3-113C399,606.2,398,553.2,395,550.2z"/>
	<path class="st1" d="M1412,786.2c-7-7-12-42-12-85v-73h-28c-33,0-52-16-52-45s19-45,52-45h28v-73c0-77,9-97,45-97s45,20,45,97v73
		h38c43,0,62,14,62,45s-19,45-62,45h-38v73c0,77-9,97-45,97C1433,798.2,1419,793.2,1412,786.2z"/>
	<path class="st1" d="M571,685.2c-32-35-61-97-61-133c0-34,14-50,78-84c23-13,42-29,42-36s-13-22-30-34c-51-36-36-90,25-90
		c52,0,115,78,115,143c0,38-15,54-78,87c-39,19-43,24-37,48c4,15,7,27,8,27c15,0,43,27,45,44C686,709.2,612,728.2,571,685.2z"/>
	<path class="st1" d="M742,665.2c-17-18-22-36-22-73c0-63,26-91,93-100c28-4,47-12,47-19s-16-36-35-65s-35-60-35-70
		c0-26,25-42,62-38c30,3,37,10,70,73c47,90,51,153,12,184c-15,12-41,21-58,22c-17,0-40,4-51,9c-18,8-18,9,6,9c31,1,49,18,49,46
		c0,32-20,45-70,45C774,688.2,758,683.2,742,665.2z"/>
	<path class="st1" d="M1091,664.2c-12-13-25-42-28-63c-5-36-8-39-29-35c-45,8-54-12-54-117c0-102,7-121,45-121c37,0,45,19,45,111v87
		l28-13c15-7,46-21,69-31l43-18l-25-32c-40-52-29-94,25-94c18,0,37,14,68,49c34,40,42,57,42,89c0,47-16,63-85,86c-68,22-88,36-54,36
		c31,0,49,17,49,45c0,32-20,45-70,45C1124,688.2,1108,683.2,1091,664.2z"/>
</g>
<polygon class="st0" points="144.7,44.3 144.7,47.1 148.3,46.7 150.7,44.3 145.1,43.8 "/>
<path d="M151.7,40.2"/>
<line x1="148.2" y1="41.6" x2="281" y2="5.3"/>
</svg>
